<svg width="52" height="20" viewBox="0 0 52 20" fill="none" xmlns="http://www.w3.org/2000/svg">
<path d="M11.528 13.298C11.528 10.13 8.888 9.514 6.534 8.986C4.664 8.546 2.992 8.15 2.992 6.566C2.992 5.136 4.356 4.3 6.138 4.3C7.942 4.3 9.262 5.312 9.262 7.072H11.11C11.11 4.542 9.592 2.848 6.996 2.562V0.867999H5.368V2.54C2.772 2.804 1.122 4.3 1.122 6.632C1.122 9.712 3.718 10.284 6.006 10.79C7.92 11.23 9.636 11.604 9.636 13.32C9.636 14.86 8.162 15.872 6.292 15.872C4.246 15.872 2.75 14.772 2.75 12.858H0.858C0.858 15.608 2.574 17.412 5.544 17.676V19.458H7.106V17.676C9.812 17.39 11.528 15.718 11.528 13.298ZM12.968 2.87V4.542H15.784V17.5H17.566V2.87H12.968ZM20.2512 2.87V4.542H23.0672V17.5H24.8492V2.87H20.2512ZM32.8364 2.628C29.8224 2.628 27.6444 4.696 27.6444 7.6C27.6444 10.306 29.8224 12.396 32.6164 12.396C33.3644 12.396 34.0684 12.242 34.7284 11.934C34.2224 12.902 33.5624 14.046 31.5824 17.522H33.5624L36.5104 12.462C37.5444 10.658 38.0724 9.008 38.0724 7.6C38.0724 4.696 35.8944 2.628 32.8364 2.628ZM32.8584 10.834C30.9004 10.834 29.4704 9.492 29.4704 7.6C29.4704 5.708 30.9004 4.344 32.8584 4.344C34.8164 4.344 36.2464 5.73 36.2464 7.6C36.2464 9.47 34.8164 10.834 32.8584 10.834ZM44.975 2.628C41.961 2.628 39.783 4.696 39.783 7.6C39.783 10.306 41.961 12.396 44.755 12.396C45.503 12.396 46.207 12.242 46.867 11.934C46.361 12.902 45.701 14.046 43.721 17.522H45.701L48.649 12.462C49.683 10.658 50.211 9.008 50.211 7.6C50.211 4.696 48.033 2.628 44.975 2.628ZM44.997 10.834C43.039 10.834 41.609 9.492 41.609 7.6C41.609 5.708 43.039 4.344 44.997 4.344C46.955 4.344 48.385 5.73 48.385 7.6C48.385 9.47 46.955 10.834 44.997 10.834Z" fill="#75767F"/>
<path d="M0 10.372H51.267V11.472H0V10.372Z" fill="#75767F"/>
</svg>
