<svg width="70" height="27" viewBox="0 0 70 27" fill="none" xmlns="http://www.w3.org/2000/svg">
<path d="M16.792 17.536C16.792 12.672 12.664 11.68 9.368 10.848C7.096 10.272 5.24 9.856 5.24 8.32C5.24 7.008 6.776 6.4 8.28 6.4C10.04 6.4 11.544 7.264 11.544 9.056H16.152C16.152 5.344 14.04 2.88 10.264 2.304V0.223999H6.552V2.304C2.872 2.816 0.6 5.024 0.6 8.512C0.6 13.184 4.536 14.144 7.8 14.912C10.136 15.488 12.056 15.936 12.056 17.568C12.056 19.104 10.36 19.968 8.6 19.968C6.712 19.968 4.984 19.008 4.984 17.024H0.28C0.28 20.992 2.84 23.616 6.808 24.192V26.432H10.488V24.192C14.136 23.648 16.792 21.408 16.792 17.536ZM18.6385 2.72V6.816H27.8225L21.0065 24H25.7425L33.8705 3.36V2.72H18.6385ZM43.0678 2.304C38.3638 2.304 35.0358 5.472 35.0358 9.952C35.0358 13.984 37.9478 16.8 42.0438 16.8C42.7158 16.8 43.3558 16.704 44.0278 16.512C42.7158 18.784 41.4038 20.992 39.6438 24H44.6678L48.9238 16.704C50.6198 13.824 51.1318 11.84 51.1318 9.952C51.1318 5.44 47.8358 2.304 43.0678 2.304ZM43.0998 13.472C40.9558 13.472 39.4518 12.032 39.4518 9.952C39.4518 7.904 40.9558 6.496 43.0998 6.496C45.1798 6.496 46.7158 7.904 46.7158 9.952C46.7158 12.032 45.1798 13.472 43.0998 13.472ZM61.029 2.304C56.325 2.304 52.997 5.472 52.997 9.952C52.997 13.984 55.909 16.8 60.005 16.8C60.677 16.8 61.317 16.704 61.989 16.512C60.677 18.784 59.365 20.992 57.605 24H62.629L66.885 16.704C68.581 13.824 69.093 11.84 69.093 9.952C69.093 5.44 65.797 2.304 61.029 2.304ZM61.061 13.472C58.917 13.472 57.413 12.032 57.413 9.952C57.413 7.904 58.917 6.496 61.061 6.496C63.141 6.496 64.677 7.904 64.677 9.952C64.677 12.032 63.141 13.472 61.061 13.472Z" fill="#F1F2F9"/>
</svg>
